<?xml version="1.0" standalone="no"?>
<!DOCTYPE svg PUBLIC "-//W3C//DTD SVG 20010904//EN"
 "http://www.w3.org/TR/2001/REC-SVG-20010904/DTD/svg10.dtd">
<svg version="1.0" xmlns="http://www.w3.org/2000/svg"
 width="1920.000000pt" height="1920.000000pt" viewBox="0 0 1920.000000 1920.000000"
 preserveAspectRatio="xMidYMid meet">
<metadata>
Created by potrace 1.11, written by Peter Selinger 2001-2013
</metadata>
<g transform="translate(0.000000,1920.000000) scale(0.100000,-0.100000)"
fill="#000000" stroke="none">
<path d="M1022 14005 c3 -3 27 -8 54 -10 115 -11 153 -15 229 -25 128 -18 149
-20 170 -24 553 -100 1051 -243 1600 -459 292 -114 475 -198 830 -377 211
-107 320 -167 623 -341 28 -17 103 -63 277 -173 294 -185 880 -611 1081 -784
17 -15 52 -45 79 -67 27 -22 67 -56 90 -75 22 -20 56 -49 75 -64 39 -32 146
-126 201 -177 20 -19 69 -63 110 -99 82 -73 616 -603 724 -720 39 -42 99 -109
135 -149 36 -41 78 -88 93 -104 15 -17 51 -57 80 -90 29 -33 57 -65 62 -71 6
-6 66 -78 135 -161 68 -82 130 -156 138 -164 7 -7 39 -48 72 -90 32 -42 109
-141 172 -221 62 -80 184 -243 271 -362 l157 -216 -61 -249 c-33 -136 -72
-302 -85 -368 -14 -66 -27 -129 -30 -140 -4 -20 -53 -281 -60 -323 -2 -12 -8
-48 -14 -80 -12 -73 -17 -104 -25 -172 -4 -30 -9 -62 -10 -71 -3 -15 -14 -125
-21 -209 -7 -89 -3 -340 6 -389 12 -63 18 -72 31 -49 5 9 15 23 22 30 7 7 40
45 73 84 88 105 305 357 323 375 9 9 53 56 98 106 149 164 288 299 330 321 19
11 24 8 41 -21 44 -72 210 -459 288 -672 25 -66 49 -129 53 -140 33 -72 95
-264 111 -338 6 -31 16 -59 21 -63 16 -9 56 33 114 121 46 70 54 90 64 160 7
44 14 91 16 105 8 54 44 317 49 355 2 22 8 67 11 100 4 33 8 71 10 85 2 14 7
57 10 95 3 39 8 88 10 110 14 153 24 318 31 530 5 170 5 170 32 193 15 13 41
35 57 50 102 93 379 302 595 448 91 62 428 268 470 288 8 4 56 29 105 57 321
179 800 389 1183 519 317 109 781 234 982 266 19 3 38 8 41 9 9 6 412 74 474
80 33 3 71 8 85 10 14 3 48 7 75 10 28 3 64 8 80 10 17 2 68 7 115 10 47 4
101 9 120 11 225 23 1112 24 1235 0 11 -2 61 -7 112 -10 51 -4 100 -9 110 -10
10 -2 52 -7 93 -10 41 -4 84 -9 95 -11 11 -2 43 -7 70 -10 78 -9 109 -14 275
-41 85 -14 169 -28 185 -31 268 -43 1064 -246 1230 -313 11 -5 97 -34 190 -65
94 -32 184 -63 200 -70 17 -7 91 -36 165 -65 74 -28 141 -54 149 -57 65 -28
-162 129 -354 244 -576 346 -1294 663 -2100 926 -216 71 -576 178 -710 211
-33 8 -96 24 -140 35 -86 22 -404 97 -470 111 -181 37 -446 89 -475 94 -19 3
-46 8 -60 11 -14 3 -68 12 -120 21 -52 9 -102 17 -110 19 -8 1 -40 6 -70 10
-30 4 -62 9 -70 10 -8 1 -35 6 -60 10 -25 4 -52 9 -60 10 -8 1 -44 6 -80 10
-36 4 -72 9 -81 10 -9 2 -40 6 -70 10 -30 3 -61 8 -69 10 -8 2 -51 7 -95 11
-44 3 -82 8 -85 9 -44 26 -1061 26 -1515 0 -33 -2 -118 -6 -190 -9 -71 -4
-148 -9 -170 -11 -38 -4 -94 -9 -230 -20 -109 -9 -168 -16 -350 -41 -231 -31
-252 -35 -370 -63 -22 -6 -55 -12 -73 -16 -154 -27 -371 -114 -447 -180 l-40
-35 -94 93 c-52 50 -102 99 -110 108 -37 36 -312 270 -386 328 -495 384 -915
661 -1436 946 -194 107 -633 326 -769 385 -41 18 -104 46 -140 62 -386 177
-1079 429 -1530 558 -41 12 -95 27 -120 35 -356 107 -964 245 -1455 331 -108
18 -233 38 -310 49 -36 5 -108 15 -213 31 -57 9 -106 13 -109 10 -4 -3 -12 -1
-19 4 -6 6 -16 10 -20 8 -8 -2 -50 3 -174 17 -14 2 -52 6 -85 10 -33 3 -71 8
-85 10 -14 2 -86 9 -160 15 -74 6 -162 13 -195 16 -220 18 -283 22 -650 39
-169 8 -669 16 -663 10z"/>
</g>
</svg>
