<?xml version="1.0" encoding="utf-8"?>
<!-- Generator: Adobe Illustrator 23.0.3, SVG Export Plug-In . SVG Version: 6.00 Build 0)  -->
<svg version="1.1" id="Lager_1" xmlns="http://www.w3.org/2000/svg" xmlns:xlink="http://www.w3.org/1999/xlink" x="0px" y="0px"
	 viewBox="0 0 1920 1080" style="enable-background:new 0 0 1920 1080;" xml:space="preserve">
<style type="text/css">
	.st0{fill:#FFFFFF;stroke:#000000;stroke-miterlimit:10;}
	.st1{fill:none;stroke:#000000;stroke-miterlimit:10;}
	.st2{stroke:#000000;stroke-miterlimit:10;}
</style>
<path class="st0" d="M791.5,462.5"/>
<path class="st0" d="M1590.5,205.5"/>
<path class="st1" d="M840.5,672.5"/>
<path class="st2" d="M819.46,807.7c0,0,82.94-99.84,89.09-93.7c6.14,6.14,47.62,109.06,47.62,121.34c0,12.29,16.9-16.9,16.9-16.9
	s15.36-86.02,15.36-162.82c0,0,328.7-321.02,852.48-110.59c0,0-184.32-141.31-546.82-178.18c0,0-281.09-6.14-319.49,39.94
	c0,0-278.02-307.2-872.45-307.2c0,0,402.43,12.29,746.5,502.27C848.64,601.87,807.17,753.94,819.46,807.7z"/>
</svg>
